<svg width="438" height="80" viewBox="0 0 438 80" fill="none" xmlns="http://www.w3.org/2000/svg">
<g clip-path="url(#clip0_354_117)">
<path d="M1.33301 80V-3.8147e-06H50.0081V7.88572H10.9309V36H44.1808V43.7714H10.9309V80H1.33301ZM86.5863 8.86857H93.5333V69.4857L95.2701 71.2229H115.197V78.08C114.375 78.8114 114.009 79.2686 113.186 80H95.5443C94.8131 79.2686 94.356 78.8114 93.5333 78.08V73.1429L91.6138 71.2229H84.7581V10.6971L82.9299 8.86857H63.1856V2.01143C63.9169 1.28 64.374 0.822853 65.1052 -3.8147e-06H82.7471C83.5698 0.822853 84.0268 1.28 84.7581 2.01143V7.04L86.5863 8.86857ZM63.1856 78.08V71.2229H84.7581V77.6229C83.844 78.6286 83.2956 79.0857 82.3815 80H65.1052C64.374 79.2686 63.9169 78.8114 63.1856 78.08ZM115.197 2.01143V8.86857H93.5333V2.01143C94.356 1.28 94.8131 0.822853 95.5443 -3.8147e-06H113.186C114.009 0.822853 114.375 1.28 115.197 2.01143ZM143.222 80V-3.8147e-06H156.933L194.982 69.2571H195.439V-3.8147e-06H205.037V80H191.326L153.277 10.7429H152.82V80H143.222ZM210.162 69.0286H218.617C219.531 70.0571 220.103 70.6286 221.131 71.5429V80H210.162V69.0286ZM239.704 71.2229H270.509L272.337 69.3943V44.4343H279.101C279.924 45.2571 280.289 45.6229 281.112 46.4457V69.2114C280.289 70.0343 279.924 70.4914 279.101 71.2229H274.165L272.337 73.0514V78.08C271.514 78.8114 271.057 79.2686 270.326 80H239.887C239.064 79.2686 238.607 78.8114 237.876 78.08V73.0514L236.048 71.2229H231.02C230.289 70.4914 229.832 70.0343 229.101 69.2114V10.88C229.832 10.0571 230.289 9.6 231.02 8.86857H236.048L237.876 7.04V2.01143C238.607 1.28 239.064 0.822853 239.887 -3.8147e-06H270.326C271.057 0.822853 271.514 1.28 272.337 2.01143V7.04L274.165 8.86857H279.101C279.924 9.6 280.289 10.0571 281.112 10.88V33.6457C280.289 34.4686 279.924 34.8343 279.101 35.6571H274.165L272.337 37.4857V44.4343H237.876V69.3943L239.704 71.2229ZM270.509 8.86857H239.704L237.876 10.6971V37.6686C238.607 36.8457 239.064 36.3886 239.887 35.6571H270.509L272.337 33.8286V10.6971L270.509 8.86857ZM361.857 -3.8147e-06C362.588 0.822853 363.045 1.28 363.868 2.01143V69.2114C363.045 70.0343 362.588 70.4914 361.857 71.2229H356.829L355.001 73.0514V78.08C354.27 78.8114 353.813 79.2686 353.081 80H322.551C321.82 79.2686 321.362 78.8114 320.54 78.08V73.0514L318.712 71.2229H313.776C313.044 70.4914 312.587 70.0343 311.765 69.2114V2.01143C312.587 1.28 313.044 0.822853 313.776 -3.8147e-06H320.54V69.3943L322.368 71.2229H353.173L355.001 69.3943V-3.8147e-06H361.857ZM428.017 71.2229H421.162L419.242 73.2343V78.08C418.419 78.8114 417.962 79.2686 417.231 80H395.567C394.745 79.2686 394.288 78.8114 393.556 78.08V73.0514L391.728 71.2229H386.701C385.969 70.4914 385.512 70.0343 384.781 69.2114V10.88C385.512 10.0571 385.969 9.6 386.701 8.86857H391.728L393.556 7.04V2.01143C394.288 1.28 394.745 0.822853 395.567 -3.8147e-06H417.231C417.962 0.822853 418.419 1.28 419.242 2.01143V6.94857L421.07 8.86857H428.017V15.6343L430.028 17.6457H434.782C435.604 18.3771 435.97 18.8343 436.793 19.6571V60.4343C435.97 61.2571 435.604 61.7143 434.782 62.4457H429.754L428.017 64.2743V71.2229ZM417.414 8.86857H395.384L393.556 10.6971V69.3943L395.384 71.2229H417.505L419.242 69.5771V62.4457H426.098L428.017 60.6171V19.2914L426.372 17.6457H419.242V10.6057L417.414 8.86857Z" fill="black"/>
</g>
<defs>
<clipPath id="clip0_354_117">
<rect width="438" height="80" fill="white"/>
</clipPath>
</defs>
</svg>
