<svg width="233" height="80" viewBox="0 0 233 80" fill="none" xmlns="http://www.w3.org/2000/svg">
<g clip-path="url(#clip0_354_132)">
<path d="M2.08105 80V-3.8147e-06H50.687V7.88572H11.6653V36H44.8679V43.7714H11.6653V80H2.08105ZM82.6491 8.86857H89.5863V69.4857L91.3206 71.2229H111.219V78.08C110.398 78.8114 110.033 79.2686 109.211 80H91.5945C90.8642 79.2686 90.4078 78.8114 89.5863 78.08V73.1429L87.6695 71.2229H80.8236V10.6971L78.998 8.86857H59.2818V2.01143C60.012 1.28 60.4684 0.822853 61.1986 -3.8147e-06H78.8154C79.6369 0.822853 80.0933 1.28 80.8236 2.01143V7.04L82.6491 8.86857ZM59.2818 78.08V71.2229H80.8236V77.6229C79.9108 78.6286 79.3631 79.0857 78.4503 80H61.1986C60.4684 79.2686 60.012 78.8114 59.2818 78.08ZM111.219 2.01143V8.86857H89.5863V2.01143C90.4078 1.28 90.8642 0.822853 91.5945 -3.8147e-06H109.211C110.033 0.822853 110.398 1.28 111.219 2.01143ZM120.948 80V-3.8147e-06H134.64L172.635 69.2571H173.091V-3.8147e-06H182.676V80H168.984L130.989 10.7429H130.533V80H120.948ZM185.512 69.0286H193.955C194.867 70.0571 195.438 70.6286 196.465 71.5429V80H185.512V69.0286ZM205.967 78.72H210.453L210.719 78.4533V74.8133H211.704C211.824 74.9333 211.878 74.9867 211.997 75.1067V78.4267C211.878 78.5467 211.824 78.6133 211.704 78.72H210.986L210.719 78.9867V79.72C210.6 79.8267 210.533 79.8933 210.427 80H205.994C205.874 79.8933 205.807 79.8267 205.701 79.72V78.9867L205.435 78.72H204.703C204.596 78.6133 204.53 78.5467 204.423 78.4267V69.92C204.53 69.8 204.596 69.7333 204.703 69.6267H205.435L205.701 69.36V68.6267C205.807 68.52 205.874 68.4533 205.994 68.3333H210.427C210.533 68.4533 210.6 68.52 210.719 68.6267V69.36L210.986 69.6267H211.704C211.824 69.7333 211.878 69.8 211.997 69.92V73.24C211.878 73.36 211.824 73.4133 211.704 73.5333H210.986L210.719 73.8V74.8133H205.701V78.4533L205.967 78.72ZM210.453 69.6267H205.967L205.701 69.8933V73.8267C205.807 73.7067 205.874 73.64 205.994 73.5333H210.453L210.719 73.2667V69.8933L210.453 69.6267ZM222.158 68.3333C222.264 68.4533 222.331 68.52 222.451 68.6267V78.4267C222.331 78.5467 222.264 78.6133 222.158 78.72H221.426L221.159 78.9867V79.72C221.053 79.8267 220.986 79.8933 220.88 80H216.434C216.327 79.8933 216.261 79.8267 216.141 79.72V78.9867L215.875 78.72H215.156C215.049 78.6133 214.983 78.5467 214.863 78.4267V68.6267C214.983 68.52 215.049 68.4533 215.156 68.3333H216.141V78.4533L216.407 78.72H220.893L221.159 78.4533V68.3333H222.158ZM230.196 78.72H229.198L228.918 79.0133V79.72C228.798 79.8267 228.732 79.8933 228.625 80H225.47C225.351 79.8933 225.284 79.8267 225.178 79.72V78.9867L224.911 78.72H224.179C224.073 78.6133 224.006 78.5467 223.9 78.4267V69.92C224.006 69.8 224.073 69.7333 224.179 69.6267H224.911L225.178 69.36V68.6267C225.284 68.52 225.351 68.4533 225.47 68.3333H228.625C228.732 68.4533 228.798 68.52 228.918 68.6267V69.3467L229.184 69.6267H230.196V70.6133L230.489 70.9067H231.181C231.301 71.0133 231.354 71.08 231.474 71.2V77.1467C231.354 77.2667 231.301 77.3333 231.181 77.44H230.449L230.196 77.7067V78.72ZM228.652 69.6267H225.444L225.178 69.8933V78.4533L225.444 78.72H228.665L228.918 78.48V77.44H229.916L230.196 77.1733V71.1467L229.956 70.9067H228.918V69.88L228.652 69.6267Z" fill="black"/>
</g>
<defs>
<clipPath id="clip0_354_132">
<rect width="232" height="80" fill="white" transform="translate(0.75)"/>
</clipPath>
</defs>
</svg>
